<?xml version="1.0" standalone="no"?>
<!DOCTYPE svg PUBLIC "-//W3C//DTD SVG 20010904//EN"
 "http://www.w3.org/TR/2001/REC-SVG-20010904/DTD/svg10.dtd">
<svg version="1.0" xmlns="http://www.w3.org/2000/svg"
 width="1804.000000pt" height="429.000000pt" viewBox="0 0 1804.000000 429.000000"
 preserveAspectRatio="xMidYMid meet">

<g transform="translate(0.000000,429.000000) scale(0.100000,-0.100000)"
fill="#000000" stroke="none">
<path d="M7606 4142 l-156 -147 157 -153 157 -152 150 147 c83 82 152 151 154
154 1 3 -67 71 -152 152 l-154 147 -156 -148z"/>
<path d="M985 4209 c-438 -40 -817 -355 -939 -780 -44 -155 -48 -233 -43 -999
3 -617 6 -724 20 -782 57 -232 162 -416 328 -573 78 -73 107 -91 95 -60 -3 8
-13 52 -23 98 -16 75 -18 152 -18 872 0 875 -2 850 67 1045 136 384 449 662
858 763 82 20 114 21 855 24 768 4 861 1 983 -31 59 -15 59 -15 -11 67 -79 92
-199 182 -332 247 -136 67 -241 97 -389 110 -124 11 -1326 10 -1451 -1z"/>
<path d="M6965 4145 c-110 -13 -208 -24 -218 -24 -16 -1 -17 -53 -15 -998 l3
-998 230 0 230 0 0 1020 c0 899 -2 1020 -15 1021 -8 1 -105 -8 -215 -21z"/>
<path d="M10443 4141 c-94 -26 -145 -53 -205 -109 -98 -92 -136 -191 -145
-384 l-6 -128 -104 0 -103 0 0 -165 0 -165 105 0 105 0 0 -530 0 -530 230 0
230 0 2 528 3 527 188 3 187 2 0 165 0 165 -191 0 -191 0 4 98 c5 110 21 152
71 182 57 35 141 36 288 4 25 -6 25 -4 58 138 19 79 34 150 35 158 2 29 -123
52 -314 56 -150 4 -185 1 -247 -15z"/>
<path d="M15638 4137 l-188 -21 0 -395 c-1 -352 -2 -394 -15 -376 -74 99 -189
175 -294 195 -266 50 -510 -69 -626 -303 -68 -137 -88 -248 -82 -447 6 -193
30 -287 114 -441 2 -4 -20 -12 -49 -19 -29 -7 -113 -30 -186 -51 -73 -22 -137
-39 -142 -39 -6 0 -10 165 -10 448 0 346 -4 462 -14 514 -40 184 -148 296
-325 334 -216 46 -413 -18 -532 -174 l-26 -33 -12 58 c-7 32 -17 75 -22 96
l-10 37 -204 0 -205 0 0 -695 0 -695 230 0 230 0 0 494 0 495 33 25 c57 44
118 66 183 66 74 0 120 -14 157 -49 64 -58 62 -41 65 -558 l3 -473 92 0 92 0
-101 -58 c-127 -74 -207 -135 -279 -214 -159 -177 -161 -357 -6 -501 74 -68
183 -122 376 -186 327 -107 494 -202 563 -319 23 -40 27 -58 27 -117 -1 -98
-43 -181 -149 -292 -226 -239 -540 -385 -886 -412 -255 -20 -423 38 -495 169
-26 49 -30 64 -29 135 1 72 22 159 59 248 5 12 3 17 -8 17 -21 0 -68 -149 -74
-235 -8 -109 14 -174 86 -246 50 -49 69 -61 142 -85 77 -26 96 -28 234 -28
116 0 173 5 251 22 236 51 441 145 609 279 282 226 359 448 213 609 -92 100
-237 175 -524 274 -212 72 -319 126 -391 196 -69 68 -92 120 -93 205 0 56 5
77 36 138 63 127 217 258 421 360 80 40 85 41 183 41 l100 0 0 38 0 38 83 27
c45 14 136 40 201 57 l120 31 55 -55 c107 -104 212 -151 365 -162 164 -12 301
39 405 152 l60 65 10 -38 c6 -21 16 -64 22 -95 l12 -58 128 0 128 0 25 -33
c55 -72 86 -180 66 -232 -7 -19 -7 -32 -1 -38 17 -17 33 42 29 100 -3 32 -17
77 -39 120 -19 37 -35 71 -37 76 -2 4 24 7 57 7 l61 0 0 1015 0 1015 -42 -1
c-24 -1 -127 -11 -230 -22z m-337 -942 c24 -9 68 -32 97 -51 l52 -36 0 -280
c0 -322 9 -293 -108 -350 -171 -83 -349 -20 -411 147 -48 127 -45 303 6 418
29 65 102 137 155 154 50 16 160 15 209 -2z"/>
<path d="M5485 3544 c-175 -26 -403 -87 -412 -111 -5 -13 55 -293 67 -312 3
-6 46 3 114 25 144 47 284 67 414 61 87 -4 111 -9 160 -33 69 -35 92 -73 92
-155 l0 -56 -182 5 c-141 3 -204 1 -275 -12 -254 -44 -393 -141 -444 -309 -30
-96 -24 -228 13 -309 71 -154 226 -238 438 -238 177 0 294 44 402 151 l68 67
19 -42 c26 -58 95 -122 161 -148 49 -20 71 -23 210 -22 85 1 169 6 185 11 l30
9 3 163 3 162 -46 -7 c-64 -9 -102 9 -115 55 -5 20 -10 160 -10 321 0 224 -3
298 -15 345 -47 177 -171 295 -377 356 -62 19 -102 22 -273 24 -110 2 -213 1
-230 -1z m389 -830 l46 -7 0 -81 c0 -92 -3 -96 -100 -147 -67 -34 -219 -40
-279 -10 -106 55 -84 198 37 235 49 15 215 21 296 10z"/>
<path d="M8754 3540 c-141 -16 -366 -70 -414 -100 -12 -7 -10 -26 14 -132 15
-68 32 -139 37 -159 l9 -37 118 38 c147 48 249 63 399 59 102 -4 125 -8 167
-29 72 -36 90 -66 94 -157 4 -75 4 -76 -19 -70 -57 14 -270 19 -371 8 -134
-15 -204 -33 -293 -75 -100 -48 -148 -93 -192 -184 -37 -75 -38 -78 -38 -192
0 -110 1 -118 33 -182 77 -157 249 -238 475 -224 162 10 274 60 377 168 l47
50 22 -44 c66 -138 215 -194 450 -169 63 6 118 14 122 17 5 3 9 76 9 163 l0
158 -53 -5 c-42 -3 -57 0 -77 16 l-25 20 -6 324 c-5 295 -8 329 -27 389 -56
169 -180 278 -380 331 -87 22 -352 33 -478 18z m404 -827 c21 -5 22 -10 22
-88 l0 -83 -52 -35 c-121 -83 -289 -88 -365 -12 -27 27 -33 41 -33 77 0 81 46
125 154 148 41 9 230 4 274 -7z"/>
<path d="M11560 3539 c-117 -14 -226 -38 -328 -71 -72 -24 -92 -34 -88 -47 2
-9 19 -81 37 -161 18 -80 33 -146 34 -147 1 -2 38 10 83 27 183 67 432 91 563
54 97 -27 144 -95 137 -197 l-3 -42 -65 5 c-36 3 -132 4 -215 4 -387 -4 -599
-134 -635 -390 -40 -293 182 -496 515 -470 157 12 252 53 354 152 36 36 67 61
69 56 1 -5 17 -33 35 -63 40 -67 106 -113 185 -129 114 -24 119 4 -51 -262
l-152 -238 -430 -2 c-278 -2 -430 -7 -430 -13 0 -9 40 -15 255 -38 l55 -6 -50
14 c-45 12 -19 13 263 14 171 1 312 -1 312 -4 0 -6 -139 -226 -151 -239 -5 -6
-12 1 -18 15 -9 21 -10 20 -10 -17 -1 -32 -14 -61 -57 -130 -30 -49 -65 -100
-77 -113 -41 -45 -173 -137 -263 -183 -210 -109 -319 -100 -319 26 0 66 22
109 95 185 67 70 143 111 209 111 37 0 49 -5 78 -36 38 -41 52 -40 30 3 -52
99 -215 65 -347 -72 -77 -79 -197 -178 -251 -205 -47 -24 -72 -25 -94 -3 -24
23 -13 69 42 185 44 93 52 140 16 88 -9 -13 -49 -63 -89 -111 -132 -158 -265
-246 -308 -203 -41 41 -1 144 119 302 42 57 74 106 70 110 -15 14 -150 -168
-196 -263 -51 -106 -34 -185 39 -185 44 0 125 52 215 138 50 48 87 78 82 67
-15 -37 -18 -134 -5 -150 27 -32 114 -5 215 69 l50 36 5 -65 c4 -53 10 -69 32
-91 69 -69 232 -29 436 107 40 27 75 49 77 49 3 0 -9 -26 -26 -59 -35 -67 -48
-133 -29 -156 46 -56 233 50 618 352 8 7 14 15 11 17 -2 2 -92 -58 -199 -135
-215 -153 -335 -222 -378 -217 -23 3 -27 8 -30 38 -2 26 9 55 44 118 26 45 62
100 81 121 18 22 33 45 33 51 0 7 64 111 142 231 l143 219 330 2 c214 2 329 7
328 13 -2 6 -119 11 -318 13 -173 1 -315 4 -315 6 0 3 67 110 150 238 l150
234 110 12 c61 6 115 14 120 17 6 4 10 74 10 163 l0 157 -46 -4 c-60 -4 -91
13 -104 58 -5 20 -10 163 -10 321 0 316 -5 356 -62 462 -61 114 -196 206 -358
243 -88 21 -355 29 -470 14z m415 -829 c24 -9 25 -14 25 -84 0 -71 -1 -75 -32
-102 -112 -94 -310 -111 -388 -33 -39 40 -47 87 -24 135 25 50 61 75 131 91
63 14 244 10 288 -7z"/>
<path d="M7530 2825 l0 -705 230 0 230 0 0 705 0 705 -230 0 -230 0 0 -705z"/>
<path d="M16123 3508 c3 -7 138 -320 301 -695 163 -375 296 -687 296 -693 0
-6 -14 -39 -31 -73 -96 -189 -189 -242 -386 -217 -52 6 -96 10 -97 8 -2 -2
-14 -74 -28 -160 l-24 -157 45 -11 c25 -6 105 -14 177 -17 218 -9 345 32 475
154 75 71 135 156 197 278 35 70 692 1580 692 1591 0 2 -105 4 -234 4 l-234 0
-17 -42 c-9 -24 -80 -209 -157 -413 -77 -203 -144 -377 -148 -385 -7 -13 -10
-12 -16 5 -4 11 -83 202 -174 425 l-167 405 -238 3 c-188 2 -236 0 -232 -10z"/>
<path d="M3416 2791 c-171 -163 -311 -302 -313 -307 -1 -5 162 -47 365 -95
l367 -85 3 200 c3 261 -22 407 -94 548 l-19 37 -309 -298z"/>
<path d="M3245 1835 l-580 -173 -182 -613 c-100 -338 -185 -627 -189 -642 l-6
-29 374 4 c274 4 389 8 433 19 l60 14 -45 6 c-40 5 -38 6 25 8 86 2 184 41
298 120 182 126 316 317 378 536 21 76 22 102 26 503 3 232 1 422 -4 421 -4
-1 -269 -79 -588 -174z"/>
<path d="M17903 1783 c-134 -210 -317 -511 -356 -590 -32 -63 -249 -266 -316
-296 -80 -35 -109 0 -98 119 7 71 -6 86 -23 27 -24 -88 -114 -169 -198 -180
-34 -5 -45 -1 -66 20 -45 45 -30 116 44 210 83 103 190 142 303 111 11 -4 17
0 17 10 0 19 -74 31 -133 22 -86 -14 -123 -41 -280 -200 -154 -156 -208 -196
-266 -196 -42 0 -66 37 -56 87 10 56 55 148 130 267 37 59 64 110 60 114 -3 4
-66 -54 -138 -129 -141 -144 -244 -221 -379 -283 -135 -63 -207 -69 -255 -24
-31 29 -32 104 -1 165 49 98 192 203 276 203 42 0 89 -24 97 -50 7 -23 25 -27
25 -6 0 25 -41 65 -77 75 -81 23 -162 -15 -310 -145 -260 -228 -523 -330 -578
-224 -22 43 -18 94 11 151 20 40 29 49 42 43 70 -29 102 -36 158 -31 80 6 188
56 209 97 22 42 19 58 -15 92 -29 29 -33 30 -103 26 -90 -5 -149 -33 -228
-105 -138 -128 -153 -289 -30 -333 37 -13 48 -13 109 3 91 24 212 84 302 150
41 30 76 54 77 54 1 -1 -4 -23 -9 -49 -15 -65 2 -122 45 -149 99 -63 351 45
585 249 67 59 69 55 22 -37 -77 -151 -48 -264 58 -228 51 18 138 77 187 126
21 23 43 41 47 41 4 0 8 -21 8 -46 0 -93 84 -131 185 -83 24 11 60 38 79 60
37 40 39 40 50 -3 9 -38 48 -62 88 -54 35 7 118 65 219 155 l61 54 -17 -39
c-72 -167 -80 -214 -40 -240 23 -15 29 -15 77 1 56 18 150 75 235 143 72 57
183 162 183 173 0 23 -31 3 -100 -65 -163 -161 -371 -279 -393 -222 -27 70
164 431 515 973 93 144 108 173 90 173 -4 0 -62 -84 -129 -187z m-2208 -545
c28 -13 43 -53 28 -77 -15 -25 -103 -69 -161 -81 -60 -13 -142 0 -163 26 -16
19 10 47 86 93 80 49 157 63 210 39z"/>
<path d="M10716 1748 c-310 -468 -567 -787 -698 -865 -29 -18 -74 -36 -100
-39 -41 -6 -49 -4 -73 21 -25 24 -27 32 -21 72 8 62 42 116 114 186 98 93 215
134 255 89 11 -12 17 -36 17 -65 0 -47 13 -69 24 -41 21 54 -9 127 -57 143
-66 22 -156 -16 -263 -112 -61 -55 -111 -89 -155 -106 l-26 -9 24 64 c26 74
29 114 9 152 -63 122 -226 95 -338 -57 -51 -70 -116 -112 -180 -119 -56 -5
-66 8 -75 103 -7 78 -20 100 -52 90 -13 -4 -71 -52 -129 -108 -59 -56 -129
-122 -156 -147 l-48 -45 53 85 c139 225 153 250 132 250 -9 0 -266 -415 -271
-436 -2 -8 0 -14 4 -14 4 0 89 80 188 178 100 98 195 188 213 200 l32 23 5
-33 c3 -18 7 -55 10 -83 4 -37 13 -56 31 -72 33 -29 56 -28 126 0 l55 23 -23
-55 c-49 -120 -17 -207 79 -218 35 -4 58 0 100 19 51 24 132 95 165 145 8 12
20 23 27 23 6 0 35 11 64 25 28 13 52 23 52 21 0 -2 -7 -20 -15 -39 -41 -98
-3 -177 84 -177 84 0 143 38 279 176 67 69 127 122 133 118 6 -3 8 -13 5 -21
-3 -8 -97 -161 -207 -341 -195 -315 -221 -362 -203 -362 7 0 725 1155 922
1481 13 22 18 40 13 44 -6 3 -61 -72 -125 -167z m-989 -492 c33 -38 32 -115
-2 -183 -15 -28 -32 -57 -40 -63 -21 -17 -153 -24 -203 -11 -46 13 -82 42 -82
65 0 8 15 25 33 38 27 19 44 23 110 23 42 -1 77 2 77 7 0 4 -19 12 -42 19 -41
11 -91 5 -153 -17 -34 -12 97 117 140 137 57 28 131 21 162 -15z m-262 -277
c22 -7 76 -12 119 -11 l79 1 -44 -45 c-84 -87 -167 -118 -228 -86 -52 26 -60
76 -28 169 l11 33 25 -24 c15 -13 44 -29 66 -37z"/>
<path d="M11498 1553 c6 -2 18 -2 25 0 6 3 1 5 -13 5 -14 0 -19 -2 -12 -5z"/>
<path d="M11548 1543 c7 -3 16 -2 19 1 4 3 -2 6 -13 5 -11 0 -14 -3 -6 -6z"/>
<path d="M11595 1530 c11 -5 27 -9 35 -9 9 0 8 4 -5 9 -11 5 -27 9 -35 9 -9 0
-8 -4 5 -9z"/>
<path d="M12942 1496 c-18 -25 -28 -47 -23 -50 10 -7 71 65 71 83 0 22 -17 10
-48 -33z"/>
<path d="M16762 1496 c-18 -25 -28 -47 -23 -50 10 -7 71 65 71 83 0 22 -17 10
-48 -33z"/>
<path d="M11745 1474 c6 -5 26 -23 45 -39 l35 -30 -25 28 c-14 16 -34 33 -45
39 -11 6 -15 6 -10 2z"/>
<path d="M7774 1318 c-17 -18 -73 -85 -126 -148 -168 -202 -287 -301 -339
-285 -34 11 -52 50 -45 98 8 50 76 175 141 260 49 62 51 67 32 67 -13 0 -82
-90 -121 -156 -25 -42 -101 -86 -158 -92 -56 -5 -65 7 -74 100 -7 70 -18 98
-38 98 -20 0 -73 -45 -217 -180 l-132 -125 68 110 c37 61 81 131 97 156 28 46
35 69 20 69 -4 0 -30 -37 -58 -82 -40 -66 -68 -97 -134 -150 -259 -209 -500
-271 -525 -134 -9 44 9 107 39 139 24 26 25 26 58 9 55 -29 169 -23 246 12
105 49 132 109 70 161 -30 25 -37 27 -103 23 -94 -6 -162 -42 -245 -128 -77
-80 -123 -110 -167 -110 -32 0 -33 2 -33 40 0 48 30 130 70 193 34 55 35 57
16 57 -8 0 -61 -57 -119 -127 -199 -244 -333 -369 -388 -361 -53 7 -15 107
116 313 41 64 75 119 75 121 0 11 -29 2 -41 -12 -17 -20 -280 -231 -341 -272
-26 -18 -91 -54 -144 -79 -143 -70 -243 -72 -273 -6 -16 35 -13 83 9 128 32
68 30 67 90 44 72 -28 154 -22 239 16 102 46 127 100 72 156 -26 26 -36 29
-94 29 -54 0 -76 -6 -134 -35 -121 -60 -213 -183 -213 -282 0 -64 17 -94 64
-117 35 -17 47 -18 101 -9 68 12 206 72 282 124 62 42 219 164 261 203 41 38
41 28 -2 -43 -115 -191 -144 -301 -78 -301 63 0 182 101 339 288 52 61 96 112
98 112 1 0 -7 -31 -18 -68 -23 -79 -18 -117 17 -134 23 -10 38 -8 97 17 15 5
16 -1 12 -57 -6 -80 17 -121 76 -139 80 -24 243 35 399 144 109 76 110 76 91
47 -46 -71 -99 -162 -99 -170 0 -22 21 -5 145 121 142 143 284 273 291 266 3
-2 9 -40 13 -83 8 -67 13 -82 36 -101 32 -28 50 -29 117 -3 29 11 53 20 54 20
0 0 -6 -26 -14 -58 -17 -64 -12 -102 18 -132 43 -43 117 -11 240 107 67 64 93
82 105 76 12 -7 -9 -47 -120 -224 l-134 -216 -173 -6 c-254 -9 -343 -39 -387
-129 -61 -127 24 -253 195 -288 29 -6 70 -10 90 -8 37 3 39 5 163 204 l125
202 358 7 c198 4 361 5 364 3 2 -3 -29 -78 -71 -168 -41 -90 -75 -165 -75
-166 0 -2 6 -4 13 -4 6 0 53 76 102 168 l90 167 260 6 c143 3 261 7 263 7 1 1
2 7 2 12 0 6 -90 10 -250 10 -137 0 -250 2 -250 4 0 9 146 258 220 376 142
225 197 280 277 280 112 0 112 -152 0 -294 -61 -77 -165 -120 -197 -81 -13 15
-10 71 6 109 5 14 3 17 -7 14 -7 -2 -20 -26 -27 -51 -11 -39 -11 -52 0 -74 59
-123 306 65 334 254 12 82 -37 153 -106 153 -39 -1 -102 -34 -142 -76 -31 -34
-164 -222 -195 -278 -7 -13 -15 -16 -26 -9 -14 7 -7 30 60 171 42 89 73 165
69 169 -3 4 -10 2 -15 -3 -5 -5 -77 -155 -160 -334 l-150 -325 -38 -7 c-21 -3
-185 -8 -365 -10 l-327 -3 13 20 c82 125 426 685 426 694 0 21 -26 11 -56 -21z
m-2395 -83 c72 -37 25 -105 -98 -145 -51 -16 -82 -21 -112 -16 -45 7 -99 32
-99 45 0 17 113 95 163 112 64 22 109 24 146 4z m1186 -10 c33 -32 31 -47 -10
-84 -75 -65 -230 -88 -287 -41 l-23 18 25 27 c84 92 242 134 295 80z m775
-630 c0 -3 -52 -88 -116 -190 l-115 -185 -57 0 c-221 2 -333 208 -172 318 60
40 100 46 423 60 20 1 37 0 37 -3z"/>
<path d="M13088 1139 c-250 -248 -313 -299 -369 -299 -30 0 -42 5 -55 26 -16
23 -16 29 0 87 17 62 98 216 155 294 32 44 38 63 22 63 -15 0 -210 -213 -204
-223 3 -5 25 10 49 34 24 24 44 40 44 36 0 -4 -12 -31 -26 -60 -135 -265 -49
-366 167 -196 30 24 118 106 197 183 78 76 142 136 142 133 0 -3 -9 -29 -20
-57 -16 -41 -19 -70 -17 -164 2 -101 0 -116 -18 -136 -48 -53 -146 -77 -179
-44 -20 19 -20 37 -1 74 19 36 2 50 -20 16 -10 -15 -15 -40 -13 -63 3 -33 8
-41 40 -56 35 -17 41 -17 91 -3 61 18 111 62 128 113 9 28 9 52 -1 104 -6 38
-9 83 -5 101 9 42 49 121 89 178 48 67 49 70 32 70 -9 0 -111 -95 -228 -211z"/>
<path d="M15125 1311 c-52 -23 -102 -81 -201 -230 -43 -66 -83 -121 -87 -121
-24 0 -11 44 54 184 40 86 69 159 65 163 -3 4 -10 2 -15 -3 -13 -14 -471
-1007 -471 -1021 0 -32 20 -3 89 125 121 223 294 523 376 649 132 202 174 243
251 243 77 0 108 -72 75 -172 -32 -98 -157 -218 -227 -218 -54 0 -64 30 -38
118 9 32 -14 28 -27 -5 -14 -38 -14 -100 1 -117 39 -48 142 -14 222 73 115
126 141 279 54 332 -39 24 -70 24 -121 0z"/>
<path d="M1457 903 c-207 -200 -374 -369 -371 -375 13 -20 191 -98 274 -119
75 -19 120 -22 389 -26 292 -5 303 -4 297 13 -3 11 -48 204 -101 429 -52 226
-99 418 -103 427 -5 13 -86 -60 -385 -349z"/>
</g>
</svg>
